PathFileType	4	(X/Y/Z)	/Users/itak/Documents/Research/Walk-IL/dataset/trc/00404_00012.trc
DataRate	CameraRate	NumFrames	NumMarkers	Units	OrigDataRate	OrigDataStartFrame	OrigNumFrames
100.000000	100.000000	4	54	mm	100.000000	0	566
Frame#	Time	RPSI			LPSI			L3			STRN			T10			C7			CLAV			RBAK			LBAK			LSHO			LUPA			LAEL			LAOL			LWTS			LWPS			LFRA			LHPS			RSHO			RUPA			RAEL			RAOL			RWTS			RWPS			RFRA			RIFD			RHPS			RBHD			LFHD			RFHD			LBHD			LHIP			RHIP			RASI			LASI			LKNE			LTHI			LANK			LTIP			LTOE			LMT1			LMT5			LHEE			RKNE			RTHI			RANK			RTIP			RTOE			RMT1			RMT5			RHEE			LIFD			LHTS			RHTS			*53			
		X1	Y1	Z1	X2	Y2	Z2	X3	Y3	Z3	X4	Y4	Z4	X5	Y5	Z5	X6	Y6	Z6	X7	Y7	Z7	X8	Y8	Z8	X9	Y9	Z9	X10	Y10	Z10	X11	Y11	Z11	X12	Y12	Z12	X13	Y13	Z13	X14	Y14	Z14	X15	Y15	Z15	X16	Y16	Z16	X17	Y17	Z17	X18	Y18	Z18	X19	Y19	Z19	X20	Y20	Z20	X21	Y21	Z21	X22	Y22	Z22	X23	Y23	Z23	X24	Y24	Z24	X25	Y25	Z25	X26	Y26	Z26	X27	Y27	Z27	X28	Y28	Z28	X29	Y29	Z29	X30	Y30	Z30	X31	Y31	Z31	X32	Y32	Z32	X33	Y33	Z33	X34	Y34	Z34	X35	Y35	Z35	X36	Y36	Z36	X37	Y37	Z37	X38	Y38	Z38	X39	Y39	Z39	X40	Y40	Z40	X41	Y41	Z41	X42	Y42	Z42	X43	Y43	Z43	X44	Y44	Z44	X45	Y45	Z45	X46	Y46	Z46	X47	Y47	Z47	X48	Y48	Z48	X49	Y49	Z49	X50	Y50	Z50	X51	Y51	Z51	X52	Y52	Z52	X53	Y53	Z53	X54	Y54	Z54	

1	0	259.3992919921875	986.8064575195312	1117.979858398438	280.3833923339844	981.0059814453125	1247.40771484375	271.9204406738281	1050.535888671875	1180.689453125	42.28358840942383	1217.570678710938	1203.4697265625	286.7024536132812	1154.971923828125	1183.84130859375	259.13232421875	1404.99365234375	1197.852905273438	99.21007537841797	1335.306640625	1199.665771484375	291.2073669433594	1256.498168945312	1129.021118164062	276.3264465332031	1367.493286132812	1301.560302734375	192.5390472412109	1387.223022460938	1355.646606445312	211.2282867431641	1268.48193359375	1424.421630859375	178.5589141845703	1071.070190429688	1446.487182617188	230.4347534179688	1048.286987304688	1383.381225585938	63.2110710144043	867.5823364257812	1402.090942382812	110.6882858276367	843.0730590820312	1459.04541015625	152.8056030273438	968.0052490234375	1454.894287109375	92.78664398193359	763.4147338867188	1454.173706054688	192.6752166748047	1385.587158203125	1041.889770507812	199.3853454589844	1318.72802734375	983.3261108398438	171.8538208007812	1055.410888671875	950.2600708007812	198.0524291992188	1047.2744140625	1040.375732421875	31.54092979431152	852.447021484375	995.5889282226562	69.03446197509766	834.9671630859375	931.8280029296875	141.0455932617188	992.1551513671875	937.8565063476562	22.44802665710449	674.923583984375	988.9661865234375	58.17099761962891	747.2841186523438	933.1259155273438	224.2339630126953	1593.400146484375	1109.560424804688	88.92423248291016	1609.327026367188	1254.01123046875	93.20059967041016	1610.69775390625	1131.770385742188	235.3305053710938	1588.270385742188	1270.218872070312	208.1045532226562	970.26416015625	1370.138549804688	165.1161804199219	962.203857421875	1015.249328613281	36.7972412109375	972.9290771484375	1085.641723632812	86.51824188232422	970.46484375	1344.410400390625	171.3298187255859	477.901123046875	1365.309814453125	176.5821685791016	620.8314208984375	1372.084350585938	256.2435913085938	42.76749801635742	1319.990600585938	218.0940551757812	247.6617889404297	1354.51708984375	34.48123550415039	45.70224380493164	1284.081298828125	111.3030242919922	45.92313385009766	1245.26708984375	132.9837188720703	42.44358444213867	1348.074951171875	287.2773132324219	37.72509002685547	1260.329467773438	147.8708648681641	472.4053955078125	1041.091430664062	94.00832366943359	732.2993774414062	1022.609924316406	218.5257110595703	53.83666610717773	1073.611572265625	147.1400756835938	346.244140625	1058.562866210938	49.78288269042969	41.13360977172852	1164.429077148438	130.8800964355469	45.11337661743164	1182.41748046875	134.0367431640625	43.91344833374023	1081.059692382812	298.1566467285156	42.2115478515625	1114.830688476562	nan	nan	nan	nan	nan	nan	nan	nan	nan	nan	nan	nan	
2	0.01	259.4080810546875	986.7758178710938	1117.97802734375	280.4174499511719	980.966064453125	1247.412963867188	271.9266967773438	1050.516723632812	1180.6806640625	42.3000373840332	1217.540893554688	1203.471923828125	286.7329406738281	1154.954467773438	1183.822387695312	259.1301574707031	1404.979858398438	1197.811279296875	99.24076080322266	1335.2587890625	1199.657470703125	291.2013854980469	1256.46826171875	1128.982055664062	276.2893371582031	1367.428344726562	1301.4560546875	192.5423736572266	1387.232055664062	1355.617065429688	211.2446441650391	1268.503051757812	1424.407104492188	178.6072540283203	1071.083862304688	1446.47802734375	230.4531860351562	1048.31005859375	1383.375610351562	63.43042755126953	867.4956665039062	1402.008666992188	109.9474182128906	842.1932983398438	1458.073120117188	153.0695190429688	968.0015869140625	1454.859619140625	93.16783142089844	763.3062133789062	1454.139404296875	192.6349029541016	1385.547973632812	1041.847778320312	199.3395385742188	1318.679565429688	983.2918090820312	171.8748474121094	1055.384521484375	950.2391357421875	198.0310668945312	1047.2431640625	1040.364868164062	31.80904197692871	852.3025512695312	995.4163818359375	69.22515869140625	834.8712158203125	931.6525268554688	141.0601043701172	992.108154296875	937.7634887695312	22.78763580322266	674.8545532226562	988.90771484375	58.56600952148438	747.182861328125	933.0094604492188	224.1547088623047	1593.385375976562	1109.5234375	88.82442474365234	1609.267822265625	1253.904663085938	93.11491394042969	1610.677856445312	1131.763305664062	235.2953643798828	1588.258178710938	1270.16552734375	208.1509094238281	970.28857421875	1370.16259765625	165.0757446289062	962.1553955078125	1015.254516601562	36.84545135498047	972.8702392578125	1085.648071289062	86.54804992675781	970.46875	1344.441528320312	171.3314971923828	477.9382629394531	1365.360961914062	176.6372680664062	620.8262329101562	1372.136962890625	256.2832336425781	42.76091766357422	1319.998779296875	217.9662322998047	247.6438751220703	1354.51611328125	34.62856292724609	45.80356597900391	1284.185424804688	111.3460540771484	45.93163299560547	1245.278442382812	133.0064086914062	42.46810531616211	1348.084838867188	287.2965698242188	37.68976974487305	1260.337036132812	147.8346405029297	472.3807373046875	1040.982666015625	93.95572662353516	732.2864990234375	1022.527709960938	218.5251770019531	53.84170532226562	1073.5849609375	147.0704193115234	346.1895446777344	1058.518188476562	49.83612823486328	41.22639083862305	1164.421020507812	130.9067687988281	45.1474494934082	1182.39794921875	134.0104522705078	43.89514541625977	1081.05078125	298.1710815429688	42.15830993652344	1114.755249023438	nan	nan	nan	nan	nan	nan	nan	nan	nan	nan	nan	nan	
3	0.02	259.4227294921875	986.73876953125	1117.979248046875	280.4757385253906	980.9161987304688	1247.424438476562	271.940673828125	1050.49951171875	1180.673706054688	42.31800842285156	1217.503051757812	1203.4794921875	286.7590942382812	1154.940307617188	1183.800537109375	259.12646484375	1404.966918945312	1197.762939453125	99.26321411132812	1335.1982421875	1199.651000976562	291.1901550292969	1256.4345703125	1128.944702148438	276.2428283691406	1367.374389648438	1301.355712890625	192.5279693603516	1387.246337890625	1355.582885742188	211.2549591064453	1268.534790039062	1424.39404296875	178.6796417236328	1071.104125976562	1446.465942382812	230.4797210693359	1048.34326171875	1383.37353515625	63.73260879516602	867.3887329101562	1401.934692382812	109.8147964477539	841.6716918945312	1457.495971679688	153.4007568359375	967.9972534179688	1454.821166992188	93.68665313720703	763.1854858398438	1454.0966796875	192.5712890625	1385.496459960938	1041.798217773438	199.2817077636719	1318.6201171875	983.25439453125	171.8870391845703	1055.352661132812	950.2074584960938	198.0033569335938	1047.2060546875	1040.341552734375	32.06583023071289	852.141845703125	995.1624755859375	69.45396423339844	834.7498168945312	931.4229125976562	141.0693206787109	992.0559692382812	937.6473388671875	23.26281356811523	674.7408447265625	988.7715454101562	59.04742813110352	747.0531005859375	932.8450317382812	224.0444488525391	1593.370971679688	1109.48291015625	88.71783447265625	1609.2021484375	1253.791015625	93.00634002685547	1610.657836914062	1131.744750976562	235.2472076416016	1588.247436523438	1270.1015625	208.2146453857422	970.3213500976562	1370.198852539062	165.0328521728516	962.0911865234375	1015.266662597656	36.89683151245117	972.8021850585938	1085.666015625	86.60592651367188	970.4774780273438	1344.486083984375	171.2440795898438	477.9868774414062	1365.419555664062	176.64697265625	620.8187866210938	1372.205322265625	256.3486328125	42.75195693969727	1320.007934570312	217.7533416748047	247.6156921386719	1354.514038085938	34.81362152099609	45.9494743347168	1284.29052734375	111.4071426391602	45.94195175170898	1245.29296875	133.0416717529297	42.50398635864258	1348.099975585938	287.3307189941406	37.63996124267578	1260.350830078125	147.7572021484375	472.3554992675781	1040.844604492188	93.89078521728516	732.2739868164062	1022.427856445312	218.5327911376953	53.84199523925781	1073.536743164062	146.9490203857422	346.1122436523438	1058.473510742188	49.92022323608398	41.373779296875	1164.39990234375	130.9515991210938	45.21185302734375	1182.357788085938	133.9802703857422	43.87107849121094	1081.034301757812	298.1880798339844	42.07737731933594	1114.644409179688	nan	nan	nan	nan	nan	nan	nan	nan	nan	nan	nan	nan	
4	0.03	259.4442443847656	986.6979370117188	1117.985473632812	280.5646362304688	980.8577880859375	1247.444091796875	271.96484375	1050.489379882812	1180.670776367188	42.33469772338867	1217.457763671875	1203.49462890625	286.7760314941406	1154.934692382812	1183.777587890625	259.1186828613281	1404.957885742188	1197.712280273438	99.267822265625	1335.12646484375	1199.649169921875	291.1713562011719	1256.402099609375	1128.916381835938	276.1875	1367.345458984375	1301.275268554688	192.4866638183594	1387.26806640625	1355.547729492188	211.2529296875	1268.579223632812	1424.38623046875	178.7781829833984	1071.131713867188	1446.451904296875	230.5168914794922	1048.387939453125	1383.3779296875	64.12131500244141	867.264892578125	1401.888671875	110.4860534667969	841.6793212890625	1457.504272460938	153.7816619873047	967.9931640625	1454.783447265625	94.33473205566406	763.0592041015625	1454.052734375	192.4809112548828	1385.434692382812	1041.745971679688	199.2133026123047	1318.554077148438	983.2181396484375	171.8829193115234	1055.31787109375	950.1627197265625	197.9712524414062	1047.166259765625	1040.301025390625	32.27892684936523	851.9730224609375	994.8222045898438	69.70161437988281	834.6087036132812	931.1427612304688	141.0676727294922	992.0048828125	937.5126953125	23.83869934082031	674.5830078125	988.5472412109375	59.57814788818359	746.8988037109375	932.6296997070312	223.9033050537109	1593.359985351562	1109.441284179688	88.61437225341797	1609.135986328125	1253.68212890625	92.87747955322266	1610.640869140625	1131.712280273438	235.1850280761719	1588.241943359375	1270.031005859375	208.2963256835938	970.362548828125	1370.249877929688	164.9942169189453	962.013916015625	1015.288513183594	36.94526672363281	972.73095703125	1085.70068359375	86.70550537109375	970.4942016601562	1344.546020507812	171.0096893310547	478.0431823730469	1365.478393554688	176.5715789794922	620.8071899414062	1372.287475585938	256.444580078125	42.74169921875	1320.017944335938	217.4358215332031	247.5761260986328	1354.5087890625	35.03310775756836	46.14212799072266	1284.381103515625	111.4855194091797	45.95342254638672	1245.308227539062	133.0908203125	42.55104827880859	1348.120239257812	287.3829650878906	37.57671356201172	1260.37255859375	147.6197052001953	472.3325500488281	1040.68359375	93.81745147705078	732.263916015625	1022.318908691406	218.5526123046875	53.83502960205078	1073.461303710938	146.7607727050781	346.0127258300781	1058.436157226562	50.03899765014648	41.58351516723633	1164.359985351562	131.0168304443359	45.3094367980957	1182.288452148438	133.9501800537109	43.84228134155273	1081.008178710938	298.2080688476562	41.96606063842773	1114.49560546875	40.07621383666992	693.1613159179688	1406.44091796875	38.80702590942383	773.0684204101562	1421.52001953125	6.052588939666748	746.2529907226562	977.755615234375	nan	nan	nan	
